<svg height="512pt" viewBox="-71 0 512 512" width="512pt" xmlns="http://www.w3.org/2000/svg"><g fill="#616166"><path d="m89.179688 46.230469h-73.894532c-15.160156 0-21.035156 19.675781-8.375 28.015625 31.21875 20.5625 64.488282 56.011718 82.269532 116.957031zm0 0"/><path d="m89.179688 200.101562h-73.894532c-15.160156 0-21.035156 19.675782-8.375 28.015626 31.214844 20.558593 64.488282 56.011718 82.269532 116.953124zm0 0"/><path d="m89.179688 353.972656h-73.894532c-15.160156 0-21.035156 19.675782-8.375 28.015625 31.214844 20.558594 64.488282 56.011719 82.269532 116.953125zm0 0"/></g><path d="m283.058594 46.230469h73.894531c15.160156 0 21.035156 19.675781 8.375 28.015625-31.214844 20.5625-64.484375 56.011718-82.269531 116.957031zm0 0" fill="#73737a"/><path d="m283.058594 200.101562h73.894531c15.160156 0 21.035156 19.675782 8.375 28.015626-31.214844 20.558593-64.488281 56.011718-82.269531 116.953124zm0 0" fill="#73737a"/><path d="m283.058594 353.972656h73.894531c15.160156 0 21.035156 19.675782 8.375 28.015625-31.214844 20.558594-64.488281 56.011719-82.269531 116.953125zm0 0" fill="#73737a"/><path d="m255.535156 512h-138.832031c-26.589844 0-48.144531-21.554688-48.144531-48.144531v-415.710938c0-26.589843 21.554687-48.144531 48.144531-48.144531h138.835937c26.585938 0 48.140626 21.554688 48.140626 48.144531v415.710938c0 26.589843-21.554688 48.144531-48.144532 48.144531zm0 0" fill="#898890"/><path d="m155.742188 463.855469v-415.710938c0-26.589843 21.558593-48.144531 48.144531-48.144531h-87.183594c-26.589844 0-48.144531 21.554688-48.144531 48.144531v415.710938c0 26.589843 21.554687 48.144531 48.144531 48.144531h87.183594c-26.585938 0-48.144531-21.554688-48.144531-48.144531zm0 0" fill="#73737a"/><path d="m242.019531 102.128906c0 30.875-25.027343 55.902344-55.898437 55.902344-30.875 0-55.902344-25.027344-55.902344-55.902344 0-30.871094 25.027344-55.898437 55.902344-55.898437 30.871094 0 55.898437 25.027343 55.898437 55.898437zm0 0" fill="#ff929f"/><path d="m242.019531 256c0 30.871094-25.027343 55.898438-55.898437 55.898438-30.875 0-55.902344-25.027344-55.902344-55.898438s25.027344-55.898438 55.902344-55.898438c30.871094 0 55.898437 25.027344 55.898437 55.898438zm0 0" fill="#ffeb99"/><path d="m242.019531 409.871094c0 30.871094-25.027343 55.898437-55.898437 55.898437-30.875 0-55.902344-25.027343-55.902344-55.898437 0-30.875 25.027344-55.902344 55.902344-55.902344 30.871094 0 55.898437 25.027344 55.898437 55.902344zm0 0" fill="#b2e59c"/></svg>