<?xml version="1.0" encoding="UTF-8" standalone="no"?><!DOCTYPE svg PUBLIC "-//W3C//DTD SVG 1.1//EN" "http://www.w3.org/Graphics/SVG/1.1/DTD/svg11.dtd"><svg width="100%" height="100%" viewBox="0 0 286 38" version="1.1" xmlns="http://www.w3.org/2000/svg" xmlns:xlink="http://www.w3.org/1999/xlink" xml:space="preserve" xmlns:serif="http://www.serif.com/" style="fill-rule:evenodd;clip-rule:evenodd;stroke-linejoin:round;stroke-miterlimit:1.41421;"><g><path d="M4.985,3.616l-2.448,0c-0.358,-2.193 -0.154,-2.652 7.19,-2.652l10.353,0c14.689,0 21.064,6.631 21.064,17.544c0,10.507 -6.017,17.546 -20.605,17.546l-19.175,0c-0.154,-0.51 -0.154,-1.326 0,-1.989c5.457,-0.306 6.425,-0.664 6.425,-4.082l0,-24.072c0,-1.988 -0.509,-2.295 -2.804,-2.295Zm29.325,15.862c0,-9.793 -5.1,-15.505 -14.893,-15.505l-5.253,0l0,25.655c0,3.111 1.123,3.619 5.866,3.619c8.721,0 14.28,-2.803 14.28,-13.769Z" style="fill-rule:nonzero;"/><path d="M65.727,1.321c0.154,1.123 0.51,1.99 1.327,3.774l11.781,26.879c0.562,1.326 1.122,1.785 3.723,1.785l1.174,0c0.306,1.478 0,2.295 -1.326,2.295l-16.525,0c-0.154,-0.51 -0.154,-1.326 0,-1.989c5.559,-0.154 6.12,-0.613 5.559,-1.939l-3.214,-7.701l-13.158,0l-2.091,5.558c-1.172,3.01 -1.172,3.776 1.632,3.776l4.386,0c0.357,1.478 0,2.295 -1.274,2.295l-14.587,0c-0.153,-0.51 -0.153,-1.326 0,-1.989c3.927,-0.511 4.385,-0.818 5.763,-4.082l10.098,-23.918c1.684,-3.928 2.347,-4.744 4.743,-4.744l1.989,0Zm1.327,20.299l-5.56,-13.26l-5.304,13.26l10.864,0Z" style="fill-rule:nonzero;"/><path d="M103.877,1.985c0.154,0.459 0.154,1.478 0,1.988c-4.437,0.307 -5.1,1.276 -5.1,3.417l0,24.226c0,1.785 0.511,2.143 2.652,2.143l2.754,0c0.357,1.478 0.204,2.295 -1.326,2.295l-15.504,0c-0.204,-0.51 -0.204,-1.326 0,-1.989c4.079,-0.664 5.049,-1.173 5.049,-3.265l0,-24.379c0,-1.837 -0.459,-2.141 -2.806,-2.141l-2.447,0c-0.307,-1.326 0,-2.295 2.141,-2.295l14.587,0Z" style="fill-rule:nonzero;"/><path d="M162.63,1.985c0.205,0.662 0.205,1.326 0,1.988c-4.742,0.307 -5.049,1.122 -4.895,2.602l2.448,24.889c0.152,1.631 0.968,1.783 4.896,2.295c0.152,1.478 0,2.295 -1.428,2.295l-18.004,0c-0.203,-0.664 -0.203,-1.326 0,-1.989l2.756,-0.154c4.283,-0.254 4.996,-0.816 4.74,-3.314l-2.292,-22.237l-12.241,25.705c-0.919,1.836 -1.327,2.141 -2.5,2.141l-14.076,-27.846l-1.632,22.899c-0.153,1.988 -0.153,2.5 5.253,2.5l2.754,0c0.358,1.478 0.153,2.295 -1.275,2.295l-16.728,0c-0.154,-0.664 -0.154,-1.326 0,-1.989c5.609,-0.306 6.069,-1.326 6.221,-3.468l2.092,-23.972c0.153,-1.631 -0.153,-2.193 -5.203,-2.345c-0.306,-1.173 0,-2.295 2.143,-2.295l10.302,0l12.802,24.532l11.781,-24.532l12.086,0Z" style="fill-rule:nonzero;"/><path d="M190.784,1.985c0.152,0.459 0.152,1.478 0,1.988c-5.355,0.307 -6.375,0.766 -6.375,4.08l0,22.544c0,1.681 0.867,2.142 2.295,2.142l3.264,0c3.775,0 4.283,-0.256 6.425,-4.845l1.428,-3.163c1.481,-0.05 2.244,0.561 1.684,2.143c-1.071,3.059 -1.988,6.018 -2.653,9.18l-24.888,0c-0.102,-0.664 -0.153,-1.326 0,-1.989c4.947,-0.306 6.07,-0.97 6.07,-4.285l0,-23.359c0,-1.837 -0.664,-2.141 -2.807,-2.141l-2.447,0c-0.304,-1.326 0,-2.295 2.143,-2.295l15.861,0Z" style="fill-rule:nonzero;"/><path d="M232.249,1.985c0.152,2.295 0.457,4.691 0.814,6.885c0.256,1.582 -0.357,2.448 -1.988,2.295l-0.664,-2.295c-0.867,-3.112 -1.937,-3.928 -4.742,-3.928l-8.16,0l0,13.108l5.355,0c1.529,0 1.836,-0.51 1.988,-1.837l0.358,-2.6l0.611,0c1.02,0 1.582,0.357 1.479,1.937c-0.153,3.214 -0.153,6.734 0,10.049c-0.459,0.203 -1.223,0.253 -1.783,0c-0.665,-3.979 -1.327,-4.438 -2.653,-4.438l-5.355,0l0,8.977c0,1.836 0.459,2.601 3.927,2.601l4.385,0c3.776,0 4.285,-0.256 6.428,-4.845l1.428,-3.163c1.478,-0.05 2.193,0.612 1.681,2.143c-1.019,2.906 -1.988,6.018 -2.652,9.18l-28.152,0c-0.203,-0.664 -0.203,-1.326 0,-1.989c5.406,-0.306 6.375,-0.664 6.375,-4.082l0,-23.562c0,-1.837 -0.459,-2.141 -2.754,-2.141l-2.448,0c-0.203,-1.326 0,-2.295 2.245,-2.295l24.277,0Z" style="fill-rule:nonzero;"/><path d="M244.845,4.28l-2.448,0c-0.357,-1.326 0,-2.295 2.09,-2.448c2.449,-0.204 5.51,-0.204 12.651,-0.204c9.791,0 15.197,4.641 15.197,11.627c0,4.285 -2.652,7.754 -6.885,9.537c0,0 3.824,3.519 5.764,5.102c6.732,5.406 8.976,5.865 13.412,5.865c0.461,1.785 -0.815,3.111 -6.221,3.111c-4.744,0 -7.855,-1.021 -11.629,-4.285c-1.683,-1.479 -3.519,-3.518 -4.845,-5.865c-1.276,-2.295 -1.377,-2.448 -4.489,-2.448l-3.418,0l0,7.497c0,1.478 0.461,1.99 3.114,1.99l2.599,0c0.153,1.478 0,2.295 -1.478,2.295l-16.067,0c-0.101,-0.561 -0.152,-1.326 0,-1.989c4.438,-0.306 5.459,-0.818 5.459,-3.927l0,-23.563c0,-1.991 -0.715,-2.295 -2.806,-2.295Zm11.629,17.033c5.048,0 9.128,-0.816 9.128,-7.7c0,-6.886 -4.08,-9.029 -9.841,-9.029l-1.737,0l0,16.729l2.45,0Z" style="fill-rule:nonzero;"/></g></svg>