<?xml version="1.0" encoding="utf-8"?>
<!-- Generator: Adobe Illustrator 20.1.0, SVG Export Plug-In . SVG Version: 6.00 Build 0)  -->
<svg version="1.1" id="Ebene_1" xmlns="http://www.w3.org/2000/svg" xmlns:xlink="http://www.w3.org/1999/xlink" x="0px" y="0px"
	 viewBox="0 0 300.8 300.2" style="enable-background:new 0 0 300.8 300.2;" xml:space="preserve">
<style type="text/css">
	.st0{fill:#FFFFFF;}
	.st1{clip-path:url(#SVGID_2_);}
	.st2{clip-path:url(#SVGID_5_);}
	.st3{clip-path:url(#SVGID_6_);fill:#B3101D;}
</style>
<rect x="0.4" y="0.1" class="st0" width="300" height="300"/>
<g>
	<path d="M58.9,202h-6.5v-38.9c0-4.3-0.7-7.2-5-7.2h-1.4v-1.4h18.7c6.1,0,18,1.4,18,14.4c0,12.2-11.9,13.7-15.8,13.7h-7.9
		C58.9,182.5,58.9,202,58.9,202z M75.5,168.5c0-8.6-7.2-11.5-11.2-11.5c-1.8,0-4,0.4-5.4,0.7v21.6c1.4,0.4,3.6,0.7,5.4,0.7
		C68.3,180,75.5,177.1,75.5,168.5z"/>
	<path d="M97,202h-6.5v-25.2c0-4.3-0.7-7.2-5-7.2h-1.4v-1.4h6.5c5,0,6.5,1.4,6.5,8.6V202z M93.3,163.8c-2.2,0-4-2.2-4-4.6
		c0-2,1.3-3.2,3.3-3.2c2.2,0,4,2.2,4,4.6C96.6,162.6,95.3,163.8,93.3,163.8z"/>
	<path d="M120.8,167.4c10.1,0,15.8,7.9,15.8,17.6c0,9.7-5.8,17.6-15.8,17.6s-15.8-7.9-15.8-17.6C105,175.3,110.7,167.4,120.8,167.4z
		 M120.8,170.3c-5.4,0-9,6.5-9,14.8c0,8.3,3.6,14.8,9,14.8s9-6.5,9-14.8C129.8,176.8,126.2,170.3,120.8,170.3z"/>
	<path d="M144.6,176.8c0-4.3-0.7-7.2-5-7.2h-1.4v-1.4h6.5c3.6,0,5.4,1.1,6.1,2.9h0.4c1.8-1.8,5-3.6,9.4-3.6c6.1,0,12.2,2.5,12.2,13
		V202h-6.5v-21.6c0-7.2-4-9.7-7.9-9.7c-2.9,0-5.4,1.8-7.2,3.8V202h-6.5L144.6,176.8L144.6,176.8z"/>
	<path d="M189.9,202h-6.5v-25.2c0-4.3-0.7-7.2-5-7.2H177v-1.4h6.5c5,0,6.5,1.4,6.5,8.6V202z M186.2,163.8c-2.2,0-4-2.2-4-4.6
		c0-2,1.3-3.2,3.3-3.2c2.2,0,4,2.2,4,4.6C189.5,162.6,188.2,163.8,186.2,163.8z"/>
	<path d="M226.9,186.1h-21.5c0,7.9,3.6,13.7,9.7,13.7c4.7,0,7.6-2.2,10.1-5.8l1.4,1.1c-3.2,5.4-7.6,7.6-13,7.6
		c-10.1,0-15.1-7.9-15.1-17.6c0-9.7,5-17.6,14-17.6c9.7,0,14.4,5.8,14.4,15.8L226.9,186.1z M220.5,183.3c0-7.9-2.5-12.6-7.6-12.6
		c-4.3,0-7.6,5.4-7.6,12.6H220.5z"/>
	<path d="M235.6,176.8c0-4.3-0.7-7.2-5-7.2h-0.7v-1.4h5.8c3.6,0,5.4,1.1,6.1,3.2h0.4c1.4-1.8,4.3-4,8.6-4c1.4,0,3.2,0.4,4.3,1.1
		s1.8,1.8,2.5,3.2l-2.9,2.2c-1.1-1.4-3.2-2.2-5.8-2.2c-2.9,0-5.4,1.4-6.8,3.6V202h-6.5L235.6,176.8L235.6,176.8z"/>
	<path d="M53.1,233.1c0,17.3,7.9,23,17.3,23c5.1,0,8.4-1,11.2-2.5v-12.5c0-4,1.1-8.4,11.9-8.4v1.4c-4.7,0-5.4,2.6-5.4,6.8v13.5
		c-5.2,3.2-10.7,4.5-17.6,4.5c-14.4,0-24.5-11.5-24.5-25.9c0-13.7,8.6-24.5,22.3-24.5c8.6,0,14.7,2.6,17.3,5.8
		c1.8,2.2,1.8,6.5,1.8,9.7h-1.4c-1.8-8.3-6.8-12.6-15.5-12.6C58.2,211.5,53.1,222.3,53.1,233.1z"/>
	<path d="M119.4,257.6l-2.5-3.2h-0.4c-1.4,1.8-4.7,4-10.1,4c-4,0-10.4-2.2-10.4-10.1c0-7.9,8.6-10.1,18.4-10.1h2.2
		c0-10.1-3.2-12.2-7.6-12.2c-4,0-6.8,1.4-7.9,6.1h-3.2c0-2.5,0-4.7,1.8-6.5c1.8-1.8,6.5-2.5,10.8-2.5c6.5,0,12.6,2.2,12.6,15.1v19.4
		H119.4z M116.5,241h-2.2c-7.2,0-11.5,2.9-11.5,7.2c0,4.7,3.2,6.8,6.8,6.8s5.4-2.2,6.8-4.3L116.5,241L116.5,241z"/>
	<path d="M133.8,232.4c0-4.3-0.7-7.2-5-7.2H128v-1.4h5.8c3.6,0,5.4,1.1,6.1,3.2h0.4c1.4-1.8,4.3-4,8.6-4c1.4,0,3.2,0.4,4.3,1.1
		s1.8,1.8,2.5,3.2l-2.9,2.2c-1.1-1.4-3.2-2.2-5.8-2.2c-2.9,0-5.4,1.4-6.8,3.6v26.6h-6.5L133.8,232.4L133.8,232.4z"/>
	<path d="M180.6,257.6l-2.5-3.2h-0.4c-1.4,1.8-4.7,4-10.1,4c-4,0-10.4-2.2-10.4-10.1c0-7.9,8.6-10.1,18.4-10.1h2.2
		c0-10.1-3.2-12.2-7.6-12.2c-4,0-6.8,1.4-7.9,6.1H159c0-2.5,0-4.7,1.8-6.5c1.8-1.8,6.5-2.5,10.8-2.5c6.5,0,12.6,2.2,12.6,15.1v19.4
		H180.6z M177.7,241h-2.2c-7.2,0-11.5,2.9-11.5,7.2c0,4.7,3.2,6.8,6.8,6.8s5.4-2.2,6.8-4.3L177.7,241L177.7,241z"/>
	<path d="M206.5,223h13.3v1.8l-4.7,0.7v0.4c2.9,1.4,5,4.3,5,7.9c0,8.3-6.1,10.8-13.7,10.8c-5,0-7.6,0.7-7.6,2.5
		c0,1.8,2.5,2.5,7.6,2.5c8.6,0,15.8,3.2,15.8,11.2c0,8.3-6.8,11.2-15.8,11.2s-15.8-2.9-15.8-11.2c0-4.7,3.6-7.9,7.9-9.4
		c-1.4-0.7-2.9-2.2-2.9-4.3c0-2.2,1.4-3.2,2.5-4c-2.9-1.4-5.4-4.7-5.4-9.4C192.8,225.5,198.9,223,206.5,223z M203.2,252.2
		c-3.6,1.4-6.1,4-6.1,8.6c0,5.8,4,8.3,9.4,8.3s9.4-2.5,9.4-8.3c0-4.7-2.9-7.6-8.6-8.3L203.2,252.2z M206.5,225.5
		c-4,0-7.2,2.2-7.2,8.3s3.2,8.3,7.2,8.3c4,0,7.2-2.2,7.2-8.3C213.7,228.1,210.5,225.5,206.5,225.5z"/>
	<path d="M254.9,241.7h-21.5c0,7.9,3.6,13.7,9.7,13.7c4.7,0,7.6-2.2,10.1-5.8l1.4,1.1c-3.2,5.4-7.6,7.6-13,7.6
		c-10.1,0-15.1-7.9-15.1-17.6c0-9.7,5-17.6,14-17.6c9.7,0,14.4,5.8,14.4,15.8L254.9,241.7z M248.6,238.9c0-7.9-2.5-12.6-7.6-12.6
		c-4.3,0-7.6,5.4-7.6,12.6H248.6z"/>
</g>
<g>
	<g>
		<g>
			<defs>
				<rect id="SVGID_1_" x="58.6" y="27.8" width="183.6" height="136"/>
			</defs>
			<clipPath id="SVGID_2_">
				<use xlink:href="#SVGID_1_"  style="overflow:visible;"/>
			</clipPath>
			<g class="st1">
				<g>
					<defs>
						<rect id="SVGID_3_" x="58.6" y="27.8" width="183.6" height="136"/>
					</defs>
					<defs>
						<rect id="SVGID_4_" x="58.6" y="27.8" width="183.6" height="136"/>
					</defs>
					<clipPath id="SVGID_5_">
						<use xlink:href="#SVGID_3_"  style="overflow:visible;"/>
					</clipPath>
					<clipPath id="SVGID_6_" class="st2">
						<use xlink:href="#SVGID_4_"  style="overflow:visible;"/>
					</clipPath>
					<path class="st3" d="M61.4,71.7v-0.3c6.5,0.1,11,0.7,15.2-1.8c4-2.4,7.3-8.2,13.6-7.7c2.6,0.2,4.6,3.9,4.6,6.5
						c0,1.8-0.8,3.4-0.7,5.1c0.3,2.7,1.7,3.8,2.8,5.9c-1.7,3.6-3.1,7.7-8.2,7c-6-0.8-7.5-8.6-11.6-10.1c-2.3-0.9-5.2,0-6.9,0.7
						c1.1-1.1,2.3-2.1,4.1-2.5c2.9-0.5,12.6,2.1,11.8-3.1c-0.2-1.5-2.2-2-4.1-1.6c-2.2,0.4-4.5,2.6-7.9,3.1
						C69.7,73.5,65.7,72.1,61.4,71.7"/>
					<path class="st3" d="M102,48.9c6,0.6,10.6,3.1,15.2,5.7c10.2,5.7,24.8,1.5,37.1-0.2c23.5-3.1,49.7-2.9,68.9,5.2
						c-17.7,12.4-43.5,16.6-70.5,19.6c12.9,1.4,22.1,5.8,31.1,11.6c3.6,2.4,7.8,5.3,12.3,4.4c-1,1.8-3.3,2.2-5.1,3.1
						c5.9,0.4,10.4-0.4,14.4-2.6c5.7-3.1,8.3-9.6,13.4-12.1c1.7-0.8,4.3-1,6.9-1.5c1.5-0.3,3.3-1.2,5.4-0.5c1.8,0.6,2.6,2.4,3.4,4.3
						c3.1,2.3,6.8,8.6,3.3,13.1c-1.9-0.8-4-1.6-6.1-2.3c-2-0.7-4-1.7-6.1-1.8c-0.8,4.4,4.3,5.8,6.9,8c-2,3.1-7.3,2.4-11.5,2.6
						c-4.5,0.2-9.5-0.1-13.3,0.8c-7.4,1.8-12.7,6.6-17.3,10.8c0.8,3,2,5.6,2,8.8c-0.1,5.9-4.2,10.1-7,13.4c0.4,1.3,0.5,2.4-0.5,2.8
						c-1.8,0.6-2.2-1.7-3.9-2c-1.9-0.3-2.7,1.6-3.8-0.2c-1.2-2,1.2-2,0.8-3.8c-0.4-1.5-3-1-2.9-2.6c0.1-1.8,2.6-1,3.4-2.3
						c0.5-2-0.1-3.3,0.7-5.4c0.6-1.6,3.1-2.4,2.6-4.3c-0.7-2.4-4.9,0.6-5.7,1.1c-8.6,5.6-19.5,11-33.9,10.1
						c-5.3-0.3-10.5-1.4-15.1-2.5c-1.2,1.4-1,2.9-1.6,4.1c-1.7,3.1-5.7,5.4-9.8,5.7c-1.1,0.1-2.5-0.3-3.8,0c-1.3,0.3-1.5,2.1-3.1,2
						c-1.5-1.1,0.2-1.9-0.5-3.4c-0.8-1.7-3.2-0.8-3.3-2.6c-0.1-2.1,2.6-1.8,3.9-2.9c0.4-1.8-1.6-1.8-0.8-3.4
						c0.8-0.8,1.8,0.4,2.9,0.2c0.8-0.1,1.8-1.6,3.1-2c1.2-0.3,3.7,0.2,3.6-1.1c-0.1-1.3-2.8-0.7-3.8-0.8c-2-0.3-3.9-1.5-5.4-2
						c-7.1,3.8-21.4,2.1-25-3.3c7.6,0.7,14.6-0.7,18.3-4.4c-2.2,0.1-4.2-0.1-4.9-1.5c2.6-0.1,4.6-1.1,6.2-2.5
						c3.2-2.7,5.7-6.6,8.3-10c8-10.3,17.7-18.2,31.6-22.9c-8.7,0.3-14.4,2.6-20,6.5c-5.2,3.7-9.9,8.6-15.7,10.8
						c-5.6,2.1-11.6,0.6-17-0.7c-2.9-0.7-5.9-1-8.2-2.6c6.5-1.6,16.7-0.3,21.1-4.1c2.9-2.5,4-8.2-0.2-10c-1.3-0.5-2.9-0.1-4.4-0.8
						c-2.6-1.3-4.5-6.6-2.8-10c1.8-3.5,7.8-2.7,6.5-8.7c-4.1-6.5-15.7-3.7-23.9-3.3c5.4-4,12.7-6.3,20.3-8.2L102,48.9L102,48.9z"/>
				</g>
			</g>
		</g>
	</g>
</g>
</svg>
