<?xml version="1.0" encoding="UTF-8" standalone="no"?><!DOCTYPE svg PUBLIC "-//W3C//DTD SVG 1.1//EN" "http://www.w3.org/Graphics/SVG/1.1/DTD/svg11.dtd"><svg width="100%" height="100%" viewBox="0 0 615 105" version="1.1" xmlns="http://www.w3.org/2000/svg" xmlns:xlink="http://www.w3.org/1999/xlink" xml:space="preserve" xmlns:serif="http://www.serif.com/" style="fill-rule:evenodd;clip-rule:evenodd;stroke-linejoin:round;stroke-miterlimit:1.41421;"><rect id="ArtBoard1" x="0" y="0" width="615" height="105" style="fill:none;"/><g><path d="M16.681,83l-6.48,0l0,-38.883c0,-4.32 -0.72,-7.201 -5.041,-7.201l-1.44,0l0,-1.44l18.722,0c6.12,0 18.001,1.44 18.001,14.401c0,12.241 -11.881,13.681 -15.841,13.681l-7.921,0l0,19.442Zm16.562,-33.483c0,-8.641 -7.201,-11.521 -11.161,-11.521c-1.8,0 -3.96,0.36 -5.4,0.72l0,21.602c1.44,0.36 3.6,0.72 5.4,0.72c3.96,0 11.161,-2.88 11.161,-11.521Z" style="fill-rule:nonzero;"/><path d="M54.84,83l-6.481,0l0,-25.202c0,-4.32 -0.72,-7.201 -5.04,-7.201l-1.44,0l0,-1.44l6.48,0c5.041,0 6.481,1.44 6.481,8.641l0,25.202Zm-3.744,-38.163c-2.232,0 -4.032,-2.16 -4.032,-4.608c0,-2.017 1.296,-3.241 3.312,-3.241c2.232,0 4.032,2.161 4.032,4.608c0,2.017 -1.296,3.241 -3.312,3.241Z" style="fill-rule:nonzero;"/><path d="M78.601,48.437c10.081,0 15.841,7.921 15.841,17.642c0,9.721 -5.76,17.641 -15.841,17.641c-10.081,0 -15.841,-7.921 -15.841,-17.642c0,-9.721 5.76,-17.641 15.841,-17.641Zm0,2.88c-5.4,0 -9,6.48 -9,14.761c0,8.281 3.6,14.761 9,14.761c5.4,0 9.001,-6.48 9.001,-14.761c0,-8.281 -3.601,-14.761 -9.001,-14.761Z" style="fill-rule:nonzero;"/><path d="M102.359,57.798c0,-4.32 -0.72,-7.201 -5.04,-7.201l-1.44,0l0,-1.44l6.48,0c3.601,0 5.401,1.08 6.121,2.88l0.36,0c1.8,-1.8 5.041,-3.6 9.361,-3.6c6.12,0 12.241,2.52 12.241,12.961l0,21.602l-6.48,0l0,-21.602c0,-7.201 -3.96,-9.721 -7.92,-9.721c-2.88,0 -5.401,1.8 -7.201,3.816l0,27.507l-6.481,0l0,-25.202l-0.001,0Z" style="fill-rule:nonzero;"/><path d="M147.72,83l-6.48,0l0,-25.202c0,-4.32 -0.72,-7.201 -5.041,-7.201l-1.44,0l0,-1.44l6.481,0c5.04,0 6.48,1.44 6.48,8.641l0,25.202Zm-3.745,-38.163c-2.232,0 -4.032,-2.16 -4.032,-4.608c0,-2.017 1.296,-3.241 3.312,-3.241c2.232,0 4.032,2.161 4.032,4.608c0.001,2.017 -1.296,3.241 -3.312,3.241Z" style="fill-rule:nonzero;"/><path d="M184.657,67.159l-21.458,0c0,7.92 3.601,13.681 9.721,13.681c4.68,0 7.561,-2.16 10.081,-5.761l1.44,1.08c-3.241,5.401 -7.561,7.561 -12.961,7.561c-10.081,0 -15.121,-7.921 -15.121,-17.642c0,-9.721 5.041,-17.642 14.041,-17.642c9.721,0 14.401,5.76 14.401,15.841l-0.144,2.882Zm-6.336,-2.881c0,-7.92 -2.521,-12.601 -7.561,-12.601c-4.32,0 -7.561,5.4 -7.561,12.601l15.122,0Z" style="fill-rule:nonzero;"/><path d="M193.438,57.798c0,-4.32 -0.72,-7.201 -5.041,-7.201l-0.72,0l0,-1.44l5.761,0c3.6,0 5.4,1.08 6.12,3.24l0.36,0c1.44,-1.8 4.32,-3.96 8.641,-3.96c1.44,0 3.24,0.36 4.32,1.08c1.08,0.72 1.8,1.8 2.52,3.24l-2.88,2.16c-1.08,-1.44 -3.24,-2.16 -5.761,-2.16c-2.88,0 -5.4,1.44 -6.84,3.601l0,26.642l-6.48,0l0,-25.202Z" style="fill-rule:nonzero;"/><path d="M226.199,58.518c0,17.281 7.92,23.042 17.281,23.042c5.113,0 8.353,-1.008 11.161,-2.521l0,-12.528c0,-3.96 1.08,-8.425 11.881,-8.425l0,1.44c-4.681,0 -5.401,2.592 -5.401,6.841l0,13.537c-5.184,3.168 -10.657,4.536 -17.642,4.536c-14.401,0 -24.482,-11.521 -24.482,-25.922c0,-13.681 8.641,-24.482 22.322,-24.482c8.641,0 14.689,2.592 17.282,5.761c1.8,2.16 1.8,6.48 1.8,9.721l-1.44,0c-1.8,-8.281 -6.84,-12.601 -15.481,-12.601c-12.241,-0.001 -17.281,10.8 -17.281,21.601Z" style="fill-rule:nonzero;"/><path d="M292.44,83l-2.521,-3.24l-0.359,0c-1.44,1.8 -4.681,3.96 -10.081,3.96c-3.961,0 -10.441,-2.16 -10.441,-10.081c0,-7.92 8.642,-10.081 18.362,-10.081l2.16,0c0,-10.081 -3.24,-12.241 -7.561,-12.241c-3.961,0 -6.841,1.44 -7.921,6.121l-3.24,0c0,-2.521 0,-4.681 1.8,-6.481c1.8,-1.8 6.48,-2.52 10.801,-2.52c6.48,0 12.602,2.16 12.602,15.121l0,19.442l-3.601,0Zm-2.879,-16.562l-2.16,0c-7.201,0 -11.521,2.88 -11.521,7.201c0,4.681 3.24,6.841 6.841,6.841c3.601,0 5.4,-2.16 6.841,-4.321l0,-9.721l-0.001,0Z" style="fill-rule:nonzero;"/><path d="M306.837,57.798c0,-4.32 -0.721,-7.201 -5.041,-7.201l-0.72,0l0,-1.44l5.761,0c3.6,0 5.4,1.08 6.12,3.24l0.36,0c1.44,-1.8 4.32,-3.96 8.641,-3.96c1.44,0 3.24,0.36 4.32,1.08c1.08,0.72 1.8,1.8 2.521,3.24l-2.881,2.16c-1.08,-1.44 -3.24,-2.16 -5.76,-2.16c-2.881,0 -5.4,1.44 -6.841,3.601l0,26.642l-6.48,0l0,-25.202Z" style="fill-rule:nonzero;"/><path d="M353.64,83l-2.521,-3.24l-0.359,0c-1.44,1.8 -4.681,3.96 -10.081,3.96c-3.961,0 -10.441,-2.16 -10.441,-10.081c0,-7.92 8.642,-10.081 18.362,-10.081l2.16,0c0,-10.081 -3.24,-12.241 -7.561,-12.241c-3.961,0 -6.841,1.44 -7.921,6.121l-3.24,0c0,-2.521 0,-4.681 1.8,-6.481c1.8,-1.8 6.48,-2.52 10.801,-2.52c6.48,0 12.602,2.16 12.602,15.121l0,19.442l-3.601,0Zm-2.88,-16.562l-2.16,0c-7.201,0 -11.521,2.88 -11.521,7.201c0,4.681 3.24,6.841 6.841,6.841c3.601,0 5.4,-2.16 6.841,-4.321l0,-9.721l-0.001,0Z" style="fill-rule:nonzero;"/><path d="M379.558,48.437l13.321,0l0,1.8l-4.681,0.72l0,0.36c2.881,1.44 5.041,4.32 5.041,7.92c0,8.281 -6.121,10.801 -13.682,10.801c-5.04,0 -7.561,0.72 -7.561,2.52c0,1.8 2.521,2.52 7.561,2.52c8.641,0 15.842,3.241 15.842,11.161c0,8.281 -6.841,11.161 -15.842,11.161c-9.001,0 -15.841,-2.88 -15.841,-11.161c0,-4.68 3.6,-7.92 7.92,-9.361c-1.439,-0.72 -2.88,-2.16 -2.88,-4.32c0,-2.16 1.44,-3.24 2.521,-3.96c-2.881,-1.44 -5.4,-4.68 -5.4,-9.361c0,-8.28 6.12,-10.8 13.681,-10.8Zm-3.241,29.163c-3.601,1.44 -6.12,3.96 -6.12,8.641c0,5.761 3.96,8.281 9.36,8.281c5.4,0 9.361,-2.52 9.361,-8.281c0,-4.68 -2.881,-7.561 -8.641,-8.281l-3.96,-0.36Zm3.241,-26.643c-3.96,0 -7.2,2.16 -7.2,8.281c0,6.121 3.24,8.281 7.2,8.281c3.961,0 7.201,-2.16 7.201,-8.281c0,-5.76 -3.24,-8.281 -7.201,-8.281Z" style="fill-rule:nonzero;"/><path d="M428.015,67.159l-21.458,0c0,7.92 3.601,13.681 9.721,13.681c4.681,0 7.561,-2.16 10.081,-5.761l1.44,1.08c-3.24,5.401 -7.561,7.561 -12.961,7.561c-10.081,0 -15.122,-7.921 -15.122,-17.642c0,-9.721 5.041,-17.642 14.042,-17.642c9.721,0 14.4,5.76 14.4,15.841l-0.143,2.882Zm-6.337,-2.881c0,-7.92 -2.52,-12.601 -7.561,-12.601c-4.32,0 -7.561,5.4 -7.561,12.601l15.122,0Z" style="fill-rule:nonzero;"/></g><g><path d="M431.78,26.858l0,-0.328c6.459,0.123 11.038,0.749 15.221,-1.8c3.953,-2.41 7.253,-8.193 13.583,-7.692c2.608,0.206 4.582,3.868 4.582,6.546c0,1.801 -0.837,3.392 -0.654,5.073c0.288,2.655 1.739,3.797 2.782,5.892c-1.651,3.571 -3.131,7.747 -8.183,7.037c-6.002,-0.843 -7.516,-8.563 -11.62,-10.147c-2.327,-0.898 -5.219,0.008 -6.873,0.655c1.063,-1.086 2.271,-2.145 4.091,-2.455c2.887,-0.492 12.63,2.084 11.783,-3.11c-0.237,-1.458 -2.242,-1.96 -4.091,-1.636c-2.215,0.388 -4.509,2.563 -7.855,3.109c-4.477,0.733 -8.48,-0.734 -12.766,-1.144" style="fill:#b3101d;"/><path d="M472.367,4.11c5.994,0.615 10.552,3.129 15.221,5.728c10.192,5.674 24.848,1.477 37.149,-0.164c23.466,-3.128 49.669,-2.903 68.9,5.237c-17.674,12.385 -43.515,16.602 -70.536,19.639c12.918,1.419 22.071,5.776 31.095,11.62c3.642,2.358 7.822,5.301 12.274,4.419c-0.955,1.772 -3.262,2.193 -5.073,3.109c5.932,0.416 10.404,-0.436 14.401,-2.619c5.722,-3.125 8.293,-9.64 13.42,-12.111c1.749,-0.842 4.26,-0.994 6.874,-1.473c1.484,-0.272 3.323,-1.171 5.4,-0.491c1.775,0.582 2.578,2.42 3.438,4.255c3.141,2.336 6.767,8.564 3.272,13.092c-1.914,-0.817 -3.955,-1.586 -6.055,-2.291c-1.993,-0.669 -4.012,-1.72 -6.056,-1.8c-0.763,4.447 4.321,5.804 6.874,8.02c-2.04,3.129 -7.258,2.434 -11.457,2.618c-4.501,0.198 -9.484,-0.096 -13.256,0.818c-7.427,1.801 -12.709,6.587 -17.348,10.802c0.759,2.985 2.026,5.639 1.964,8.837c-0.114,5.929 -4.209,10.143 -7.037,13.42c0.428,1.279 0.483,2.445 -0.491,2.782c-1.807,0.626 -2.176,-1.69 -3.928,-1.964c-1.904,-0.298 -2.726,1.569 -3.764,-0.164c-1.179,-2.017 1.229,-2.006 0.818,-3.764c-0.358,-1.527 -2.994,-1.015 -2.946,-2.619c0.053,-1.778 2.556,-1.037 3.437,-2.291c0.521,-1.983 -0.118,-3.261 0.655,-5.401c0.562,-1.558 3.136,-2.416 2.618,-4.255c-0.688,-2.448 -4.854,0.576 -5.728,1.146c-8.627,5.625 -19.536,10.994 -33.878,10.146c-5.318,-0.314 -10.53,-1.411 -15.057,-2.455c-1.151,1.369 -0.987,2.912 -1.636,4.091c-1.686,3.062 -5.745,5.393 -9.82,5.728c-1.054,0.086 -2.495,-0.308 -3.764,0c-1.258,0.305 -1.52,2.116 -3.109,1.964c-1.542,-1.082 0.229,-1.852 -0.491,-3.437c-0.752,-1.654 -3.208,-0.787 -3.273,-2.618c-0.073,-2.07 2.569,-1.807 3.928,-2.946c0.399,-1.771 -1.559,-1.845 -0.818,-3.437c0.804,-0.783 1.783,0.366 2.946,0.164c0.828,-0.144 1.78,-1.61 3.109,-1.964c1.179,-0.313 3.724,0.236 3.601,-1.146c-0.117,-1.312 -2.828,-0.687 -3.764,-0.818c-1.964,-0.275 -3.914,-1.472 -5.401,-1.964c-7.124,3.776 -21.363,2.099 -25.039,-3.273c7.604,0.676 14.599,-0.675 18.329,-4.418c-2.209,0.082 -4.173,-0.082 -4.909,-1.473c2.564,-0.133 4.554,-1.05 6.219,-2.455c3.228,-2.723 5.71,-6.588 8.347,-9.983c7.979,-10.273 17.743,-18.24 31.586,-22.912c-8.651,0.328 -14.412,2.599 -19.967,6.546c-5.235,3.721 -9.921,8.601 -15.711,10.802c-5.608,2.131 -11.58,0.587 -17.021,-0.655c-2.901,-0.663 -5.939,-1.047 -8.183,-2.619c6.481,-1.58 16.688,-0.314 21.111,-4.091c2.89,-2.467 4.047,-8.212 -0.163,-9.983c-1.256,-0.528 -2.859,-0.062 -4.419,-0.818c-2.623,-1.272 -4.521,-6.635 -2.782,-9.983c1.824,-3.511 7.814,-2.712 6.546,-8.674c-4.06,-6.457 -15.741,-3.656 -23.894,-3.273c5.445,-4.046 12.662,-6.322 20.294,-8.183l2.948,0l0,0.002Z" style="fill:#b3101d;"/></g></svg>